<?xml version="1.0" encoding="UTF-8"?>
<svg version="1.1" xmlns="http://www.w3.org/2000/svg" width="1039" height="1040">
<path d="M0 0 C5.54549068 5.25088649 9.24965798 11.3354711 12.875 18 C13.19678223 18.59087402 13.51856445 19.18174805 13.85009766 19.79052734 C15.52352015 22.8835713 17.16842202 25.99059576 18.80078125 29.10546875 C20.57677517 32.47432053 22.44257088 35.78470944 24.33569336 39.08886719 C31.42753383 51.49103736 36.63971451 62.82358415 38.875 77 C56.57458599 78.66163223 73.41259989 79.0139107 91.171875 77.52734375 C97.20209787 77.02425185 103.19935662 76.73654386 109.25 76.6875 C110.03391113 76.67025879 110.81782227 76.65301758 111.62548828 76.63525391 C117.41363957 76.63908966 122.11748759 77.79399007 126.75 81.5 C130.04239592 85.88986122 129.43096307 91.83018246 128.875 97 C124.81936109 111.85855152 116.42197223 123.21298288 105.875 134 C105.14410156 134.79277344 104.41320312 135.58554688 103.66015625 136.40234375 C87.28522588 153.7530614 63.30094949 165.63770125 40.875 173 C41.22433594 173.60328125 41.57367187 174.2065625 41.93359375 174.828125 C42.38863281 175.62734375 42.84367187 176.4265625 43.3125 177.25 C43.76496094 178.03890625 44.21742188 178.8278125 44.68359375 179.640625 C48.79420225 187.78097757 48.13938878 200.36514377 45.4375 208.9375 C42.22237633 216.45859288 36.24748275 223.35465195 28.875 227 C27.555 227 26.235 227 24.875 227 C24.875 227.66 24.875 228.32 24.875 229 C25.42908539 228.93735962 25.98317078 228.87471924 26.55404663 228.81018066 C32.36163535 228.15472848 38.17005673 227.50706864 43.97900391 226.86376953 C46.14198394 226.62322316 48.30474981 226.38074236 50.46728516 226.13623047 C53.58961497 225.78354683 56.71266866 225.43800652 59.8359375 225.09375 C60.79051849 224.9843811 61.74509949 224.87501221 62.72860718 224.7623291 C75.51283355 223.37159869 75.51283355 223.37159869 80.875 224 C82.875 226 82.875 226 83.265625 228.2734375 C82.72697381 232.03322277 81.05959096 233.72339631 78.625 236.625 C66.9671563 251.08427552 49.03451755 274.33122968 50.875 294 C52.19134432 297.25370274 52.19134432 297.25370274 54.0625 300.4375 C59.02266501 309.71309671 62.43769174 319.51865348 63.6875 330 C64.63956924 336.70075398 67.69708627 342.04480512 70.796875 347.9609375 C74.00654904 354.10941473 76.53936552 360.47962762 78.875 367 C79.16842285 367.81887695 79.4618457 368.63775391 79.76416016 369.48144531 C93.98894772 409.95321273 101.20162877 453.15421634 107.25 495.5 C107.37160492 496.3506604 107.49320984 497.2013208 107.61849976 498.07775879 C108.90079285 507.12978432 110.05394403 516.19190205 111.0390625 525.28125 C111.12441254 526.05368042 111.20976257 526.82611084 111.29769897 527.62194824 C111.76599755 532.10899369 111.95476105 536.48865543 111.875 541 C112.57625 541.0825 113.2775 541.165 114 541.25 C118.89293266 542.52641721 122.02421717 544.62114506 124.6875 548.9375 C127.47725502 556.13213137 127.77631024 563.44902993 125.9921875 570.9609375 C123.87555655 578.21534831 123.87555655 578.21534831 124.94140625 585.3359375 C126.49073048 587.08325778 126.49073048 587.08325778 128.26171875 588.34765625 C132.28473661 592.46808374 132.17012892 598.80706285 132.1875 604.25 C132.03154736 613.53376894 131.06343308 621.82105385 124.4375 628.76171875 C122.33964933 630.42426541 120.53391621 630.92179658 117.875 631 C117.83375 631.804375 117.7925 632.60875 117.75 633.4375 C116.30248494 639.33095419 113.08976157 644.31256261 108.25 648 C106.11833235 648.89754427 104.1176508 649.47009095 101.875 650 C101.71644531 651.12277344 101.55789063 652.24554687 101.39453125 653.40234375 C99.92568559 663.09045168 98.51333654 671.24273175 91.4375 678.5 C88.54094588 680.19554387 86.1704998 680.52856674 82.875 681 C83.05385742 681.68715088 83.23271484 682.37430176 83.41699219 683.08227539 C85.39752507 690.82954097 87.13344862 698.61066027 88.71972656 706.44799805 C88.99264691 707.78777392 89.27008152 709.12663722 89.55175781 710.46459961 C89.96583459 712.4314643 90.36591956 714.40125826 90.765625 716.37109375 C91.00313477 717.52536865 91.24064453 718.67964355 91.48535156 719.86889648 C92.07983164 724.64596852 90.98506352 728.10636779 89.02734375 732.42578125 C88.66962891 733.22177734 88.31191406 734.01777344 87.94335938 734.83789062 C87.38358398 736.06282227 87.38358398 736.06282227 86.8125 737.3125 C86.43544922 738.14845703 86.05839844 738.98441406 85.66992188 739.84570312 C84.74288193 741.89927262 83.81113122 743.95056287 82.875 746 C77.96452296 746.24209794 73.05388431 746.4570186 68.14111328 746.64697266 C66.47054457 746.71537747 64.80026098 746.79116431 63.13037109 746.87451172 C60.72790995 746.99313413 58.32566954 747.08504986 55.921875 747.171875 C55.17693787 747.21439392 54.43200073 747.25691284 53.66448975 747.30072021 C50.36206781 747.39654031 48.39064292 747.40711457 45.7487793 745.32128906 C43.6127914 742.67516881 42.9846997 740.79829068 42.22753906 737.49707031 C41.96757141 736.39623108 41.70760376 735.29539185 41.4397583 734.16119385 C41.17604431 732.97878113 40.91233032 731.79636841 40.640625 730.578125 C40.35773621 729.36300232 40.07484741 728.14787964 39.78338623 726.89593506 C39.03650327 723.67603389 38.30224677 720.45359563 37.57403564 717.22943115 C36.82684314 713.93567011 36.06310982 710.64575307 35.30078125 707.35546875 C33.81028034 700.90707368 32.33636706 694.45505615 30.875 688 C30.93319916 688.73580795 30.99139832 689.47161591 31.05136108 690.22972107 C36.72622213 762.11946268 36.72622213 762.11946268 37.875 795 C37.91723694 796.1980426 37.91723694 796.1980426 37.96032715 797.42028809 C38.54971342 814.3746022 38.95472484 831.33595956 39.05023193 848.30072021 C39.06206428 850.24104829 39.08190451 852.18132247 39.10205078 854.12158203 C39.11068871 863.10379746 39.03038081 871.87271695 32.875 879 C27.60548538 883.09390112 22.68440648 884.91385435 16.125 885.75 C14.90043091 885.92366089 14.90043091 885.92366089 13.65112305 886.10083008 C-0.85800236 888.03012471 -15.51060049 888.18370055 -30.125 888 C-30.23714844 889.13566406 -30.34929687 890.27132812 -30.46484375 891.44140625 C-33.14769626 915.37995577 -39.35179004 938.99538247 -45.5 962.25 C-45.72598877 963.12333984 -45.95197754 963.99667969 -46.18481445 964.89648438 C-48.07467816 971.77283887 -48.07467816 971.77283887 -51.125 974 C-54.12426758 974.70776367 -54.12426758 974.70776367 -57.76953125 975.16796875 C-58.41693771 975.25250809 -59.06434418 975.33704742 -59.73136902 975.42414856 C-61.09986009 975.60050523 -62.46915042 975.77075301 -63.83911133 975.93530273 C-65.9212737 976.18554982 -68.00056537 976.4533043 -70.08007812 976.72460938 C-86.1278206 978.76572995 -86.1278206 978.76572995 -88.92578125 976.6171875 C-89.93283475 975.45660387 -90.93288196 974.2899032 -91.92578125 973.1171875 C-95.68236282 971.20887075 -99.2324488 972.87973362 -103.125 974 C-103.83615967 974.19158691 -104.54731934 974.38317383 -105.2800293 974.58056641 C-106.70534434 974.96476884 -108.1290682 975.35491548 -109.55126953 975.75048828 C-142.855379 984.94849217 -198.8449187 998.07170249 -231.3046875 981.51171875 C-234.56745605 978.80208049 -235.05439469 975.64721533 -235.5 971.5625 C-234.95959626 966.42866449 -233.20265304 963.76338619 -229.265625 960.421875 C-223.73845676 956.34320602 -217.76301181 953.07162323 -211.7578125 949.765625 C-210.92580322 949.30559082 -210.09379395 948.84555664 -209.23657227 948.37158203 C-207.20031649 947.24601351 -205.16311305 946.12220087 -203.125 945 C-205.0126709 944.93268677 -205.0126709 944.93268677 -206.93847656 944.86401367 C-211.71026978 944.69080993 -216.4813815 944.50256933 -221.25244141 944.31030273 C-223.29818806 944.22984843 -225.34408914 944.15320915 -227.39013672 944.08081055 C-269.81858827 942.56923181 -269.81858827 942.56923181 -282.3125 933.75 C-284.2575862 930.79883473 -284.68415532 928.69135854 -284.69140625 925.16015625 C-283.46841951 920.49593787 -280.97997311 917.59628894 -277.078125 914.875 C-275.85654729 914.22534276 -274.62090651 913.60168398 -273.375 913 C-272.34584473 912.49690308 -272.34584473 912.49690308 -271.29589844 911.98364258 C-253.94402798 904.00762429 -232.21256447 899.83586163 -213.125 900 C-213.16921926 894.96396047 -213.23912041 889.92916683 -213.33251953 884.89379883 C-213.36069086 883.1819858 -213.38192452 881.47004363 -213.39599609 879.75805664 C-213.41747965 877.29246081 -213.46415416 874.82841139 -213.515625 872.36328125 C-213.51746796 871.22080681 -213.51746796 871.22080681 -213.51934814 870.05525208 C-213.65677753 865.03462269 -214.69925214 862.62081262 -218.125 859 C-221.90988433 850.11912762 -223.26145177 840.55055494 -224.125 831 C-224.25527588 829.62086426 -224.25527588 829.62086426 -224.38818359 828.21386719 C-225.33614898 816.86210928 -225.36865552 805.50990561 -225.375 794.125 C-225.37567474 793.02276093 -225.37634949 791.92052185 -225.37704468 790.78488159 C-225.30215437 712.30613739 -215.90022891 633.89692339 -207.125 556 C-207.89376465 555.85755859 -208.6625293 555.71511719 -209.45458984 555.56835938 C-219.45938171 553.43897965 -227.7286075 546.70364681 -235.125 540 C-236.46691406 538.79923828 -236.46691406 538.79923828 -237.8359375 537.57421875 C-265.60807882 511.35381599 -281.34129545 470.17838597 -289.25 433.6875 C-290.54877783 428.07534994 -292.04172829 425.21244871 -296.44140625 421.55078125 C-300.3616803 417.93976316 -301.95181445 413.19463006 -302.36328125 407.98046875 C-302.37357958 405.30633448 -302.30449784 402.66753739 -302.125 400 C-302.95 399.814375 -303.775 399.62875 -304.625 399.4375 C-316.39376284 394.60390097 -324.22028693 381.23996745 -329.125 370 C-330.34566018 366.34605011 -330.1985579 362.82501087 -330.125 359 C-331.31996094 359.40992188 -332.51492188 359.81984375 -333.74609375 360.2421875 C-335.35147913 360.78670418 -336.95695264 361.3309611 -338.5625 361.875 C-339.34560547 362.14441406 -340.12871094 362.41382813 -340.93554688 362.69140625 C-349.54188718 365.59560339 -357.5812776 367.37103122 -366.6875 367.4375 C-367.48607422 367.47037109 -368.28464844 367.50324219 -369.10742188 367.53710938 C-375.27477361 367.59239941 -379.41826531 366.017604 -384.125 362 C-387.09630364 358.34887146 -387.51394654 355.58897813 -387.4375 350.9375 C-387.43363281 349.91527344 -387.42976563 348.89304687 -387.42578125 347.83984375 C-387.11054167 344.86349086 -386.75396765 343.4816699 -385.125 341 C-382.61669922 339.28344727 -382.61669922 339.28344727 -379.4296875 337.56640625 C-378.85390961 337.2522023 -378.27813171 336.93799835 -377.68490601 336.61427307 C-375.79545083 335.58644919 -373.89791373 334.57460591 -372 333.5625 C-370.68269799 332.84919663 -369.36597142 332.13482959 -368.04980469 331.41943359 C-364.71382891 329.60941781 -361.37127243 327.811993 -358.02600098 326.01922607 C-349.3739203 321.38039299 -340.73560177 316.71540436 -332.125 312 C-331.26261719 311.52804199 -330.40023437 311.05608398 -329.51171875 310.56982422 C-327.12261449 309.25126532 -324.74688479 307.91173555 -322.375 306.5625 C-321.34681152 305.99716553 -321.34681152 305.99716553 -320.29785156 305.42041016 C-315.92947387 302.89176142 -313.86276103 300.32685276 -311.125 296 C-308.20232518 293.95412763 -305.89548135 293.77145643 -302.375 293.875 C-301.57578125 293.89304687 -300.7765625 293.91109375 -299.953125 293.9296875 C-299.04820312 293.96449219 -299.04820312 293.96449219 -298.125 294 C-298.03863281 293.20078125 -297.95226562 292.4015625 -297.86328125 291.578125 C-296.47951966 280.7619335 -294.08566449 270.9311481 -285.87109375 263.3046875 C-280.57716108 259.34904206 -275.57012023 259.26699049 -269.125 260 C-263.93262628 261.72191539 -259.63520277 264.97199362 -255.125 268 C-254.31417969 267.48050781 -253.50335938 266.96101563 -252.66796875 266.42578125 C-228.81167784 251.40103925 -228.81167784 251.40103925 -215.1953125 253.46484375 C-210.60211865 254.65214103 -207.86358428 257.18367001 -204.75 260.625 C-202.55862222 265.17632309 -202.52178758 269.02757325 -203.125 274 C-203.5375 275.03125 -203.95 276.0625 -204.375 277.125 C-205.40593104 279.84618315 -205.40593104 279.84618315 -204.3671875 281.68359375 C-203.81417969 282.61365234 -203.81417969 282.61365234 -203.25 283.5625 C-199.5812988 290.12623071 -200.30041801 297.37988396 -201.92578125 304.515625 C-203.21042174 308.86058666 -204.51133011 312.90405425 -206.73046875 316.8671875 C-208.42610486 320.67643165 -208.56287796 324.0943475 -208.625 328.1875 C-208.86565364 335.14533231 -209.85036416 341.37637488 -212.125 348 C-211.59132813 348.32871094 -211.05765625 348.65742188 -210.5078125 348.99609375 C-199.07687387 356.2936999 -187.31215432 366.62569136 -181.125 379 C-173.10427443 364.08646339 -163.125 345.21767526 -163.125 328 C-164.4545066 324.01148019 -165.44569272 323.09215512 -169.125 321 C-176.67536736 317.78342073 -184.44026477 316.23818574 -192.51269531 315.03881836 C-197.92287857 314.20212143 -197.92287857 314.20212143 -200.125 312 C-200.77708555 306.85077272 -199.15613578 303.31839452 -196.6875 298.9375 C-196.3356665 298.28990723 -195.98383301 297.64231445 -195.62133789 296.97509766 C-192.43432032 291.24391631 -188.69394808 286.00864092 -184.71484375 280.8046875 C-182.92874934 278.18956978 -182.92874934 278.18956978 -183.12109375 275.6015625 C-184.49595498 272.03869253 -186.35972304 268.80546792 -188.25 265.5 C-196.58601992 250.27516265 -200.92759027 234.1397959 -203.125 217 C-214.34103148 218.24023425 -223.62218998 222.18151077 -233.734375 227.0637207 C-242.65647434 231.36930513 -250.05457282 234.0161425 -260.125 233 C-263.57628672 231.66792442 -265.53496081 230.59003919 -268.125 228 C-267.92132925 224.94493878 -267.55956911 222.02510729 -267.125 219 C-267.02316406 217.96230469 -266.92132813 216.92460937 -266.81640625 215.85546875 C-262.9739572 181.19420151 -236.03810332 151.68135975 -214.375 126.1875 C-213.87838867 125.5992041 -213.38177734 125.0109082 -212.87011719 124.40478516 C-210.2063844 121.2874887 -207.47606171 118.31578982 -204.5390625 115.453125 C-198.24239899 109.26136289 -194.07163126 105.08265842 -193.48046875 95.9140625 C-190.937026 67.90824237 -178.24081579 36.09734761 -157.6875 16.5 C-138.84337225 0.97556315 -104.37717382 -1.429359 -81 -2.9375 C-72.05337317 -3.52005311 -64.45527705 -5.51375376 -56.07421875 -8.6015625 C-37.22445841 -15.51268958 -15.54900041 -12.92200034 0 0 Z M6.875 507 C4.19957177 509.97364475 1.98765469 513.17527219 1.73657227 517.2421875 C2.71329989 526.17634626 4.56795083 534.90622848 6.4375 543.6875 C6.77075194 545.27527117 7.10343846 546.86316112 7.43554688 548.45117188 C8.24219245 552.30218031 9.05644949 556.15150522 9.875 560 C13.04679553 556.64818809 13.04679553 556.64818809 14.10131836 552.28710938 C13.91001343 550.83014648 13.91001343 550.83014648 13.71484375 549.34375 C13.58182861 548.24780518 13.44881348 547.15186035 13.31176758 546.02270508 C13.06463013 544.27896606 13.06463013 544.27896606 12.8125 542.5 C12.66127686 541.30850342 12.51005371 540.11700684 12.35424805 538.8894043 C11.88607021 535.25575267 11.38497768 531.62799908 10.875 528 C10.72514648 526.90510254 10.57529297 525.81020508 10.42089844 524.68212891 C9.61306437 518.78162788 8.7649267 512.88866393 7.875 507 C7.545 507 7.215 507 6.875 507 Z " fill="#1E1E1B" transform="translate(666.125,32)"/>
<path d="M0 0 C1.4934048 6.47361377 2.71690483 12.94866011 3.8125 19.5 C5.18951551 27.59599138 6.71571548 35.64498225 8.375 43.6875 C11.71544322 60.04446747 14.37812493 76.51536498 17 93 C17.19480957 94.21526367 17.38961914 95.43052734 17.59033203 96.68261719 C22.59455722 128.3049649 25.07946313 160.10682122 26.6875 192.0625 C26.74825714 193.26689728 26.80901428 194.47129456 26.87161255 195.71218872 C28.41870705 226.89751674 29.26337257 258.07012992 29.392869 289.2920332 C29.41345506 294.21482124 29.44647249 299.13685885 29.50756836 304.05932617 C29.56770174 308.92033339 29.59847844 313.78069625 29.60820198 318.64205742 C29.61671563 320.47009387 29.63543168 322.29811468 29.6649456 324.12593269 C29.70385019 326.66034325 29.70490455 329.19216866 29.69702148 331.72680664 C29.7270224 332.83391747 29.7270224 332.83391747 29.75762939 333.96339417 C29.68423229 339.2290737 28.06127162 341.84367961 24.61758518 345.53987789 C13.93387231 355.18358973 -4.067031 354.45592069 -17.65234375 354.36328125 C-19.20626322 354.3627597 -20.76018334 354.36328874 -22.31410217 354.36479187 C-25.55040521 354.364703 -28.78645482 354.3544601 -32.02270508 354.33618164 C-36.09000634 354.3136663 -40.15693705 354.31310456 -44.22428322 354.31944942 C-61.73487731 354.3399073 -79.06705778 353.97194343 -96.50888062 352.23725891 C-99.76048304 351.92757016 -103.01576784 351.69403698 -106.27348328 351.45935059 C-129.59993429 349.72624964 -153.92641305 344.63100802 -176 337 C-176.99 336.67 -177.98 336.34 -179 336 C-179.33 236.01 -179.66 136.02 -180 33 C-171.585 30.525 -171.585 30.525 -163 28 C-159.4622064 26.41221045 -156.21921603 24.88406537 -152.875 23 C-152.10414063 22.5875 -151.33328125 22.175 -150.5390625 21.75 C-146.87274088 19.75472293 -143.54516536 17.68409709 -140.2734375 15.08984375 C-137 13 -137 13 -134.296875 13.31640625 C-133.03617188 13.93322266 -133.03617188 13.93322266 -131.75 14.5625 C-95.67515063 31.64763829 -39.98218162 11.95021415 -4.15014648 0.60742188 C-2 0 -2 0 0 0 Z " fill="#756A4C" transform="translate(659,557)"/>
<path d="M0 0 C-2.15016967 3.81345424 -4.28792261 7.56760438 -6.77734375 11.171875 C-7.28458984 11.90954102 -7.79183594 12.64720703 -8.31445312 13.40722656 C-8.85005859 14.1803418 -9.38566406 14.95345703 -9.9375 15.75 C-11.09255348 17.42701063 -12.2474981 19.10409624 -13.40234375 20.78125 C-13.9938623 21.63847656 -14.58538086 22.49570312 -15.19482422 23.37890625 C-16.99167836 25.98791707 -18.78055845 28.60219525 -20.56640625 31.21875 C-21.14205322 32.06211914 -21.7177002 32.90548828 -22.31079102 33.77441406 C-23.4065981 35.38035189 -24.50215368 36.98646137 -25.59741211 38.59277344 C-28.67858902 43.10152456 -31.81032216 47.56728595 -35 52 C-36.07894531 51.84402344 -37.15789062 51.68804687 -38.26953125 51.52734375 C-39.78373826 51.32983849 -41.2980686 51.1332772 -42.8125 50.9375 C-43.51181641 50.83373047 -44.21113281 50.72996094 -44.93164062 50.62304688 C-60.93569487 48.63112596 -76.40034315 51.53209658 -91.875 55.375 C-93.55691909 55.78019551 -95.23921144 56.18384478 -96.921875 56.5859375 C-100.14231355 57.357528 -103.36059695 58.13717268 -106.57714844 58.92480469 C-112.37170831 60.34020491 -118.18352068 61.67765671 -124 63 C-124.67958603 65.39719432 -124.67958603 65.39719432 -125 68 C-124.34 68.66 -123.68 69.32 -123 70 C-120.35090373 69.80452136 -120.35090373 69.80452136 -117 69 C-115.81905762 68.74718262 -115.81905762 68.74718262 -114.61425781 68.48925781 C-112.77874433 68.0936788 -110.9444907 67.69222286 -109.11132812 67.28588867 C-106.02742784 66.60340682 -102.93985605 65.9396357 -99.8515625 65.27734375 C-96.56047161 64.56896863 -93.28565423 63.8345873 -90.0234375 63.00390625 C-80.83561927 60.87502154 -71.76221743 60.71263144 -62.375 60.6875 C-60.4269043 60.67916138 -60.4269043 60.67916138 -58.43945312 60.6706543 C-35.52843727 60.8404838 -35.52843727 60.8404838 -30.23413086 65.36230469 C-28.5043186 67.40458331 -27.10801924 69.13579297 -25.90234375 71.49609375 C-25.41519897 72.44766357 -25.41519897 72.44766357 -24.91821289 73.41845703 C-24.59457764 74.08474121 -24.27094238 74.75102539 -23.9375 75.4375 C-23.42207642 76.48333252 -23.42207642 76.48333252 -22.89624023 77.55029297 C-6.42093279 112.08003579 -18.41716101 150.09263128 -30.31762695 184.10498047 C-39.41022942 209.32840023 -50.55047081 234.34095373 -63.875 257.625 C-64.30304932 258.376604 -64.73109863 259.12820801 -65.17211914 259.90258789 C-74.27374652 275.36528274 -87.98297656 280.31066452 -104.79199219 284.73486328 C-123.35011108 289.42351218 -142.00029351 291.99165773 -161 294 C-162.39955933 294.16012573 -162.39955933 294.16012573 -163.82739258 294.32348633 C-171.77500852 295.16392218 -179.70395819 295.11313153 -187.6875 295.0625 C-189.08268067 295.05747028 -190.47786311 295.05291 -191.87304688 295.04882812 C-195.24874437 295.03714751 -198.62434826 295.02076833 -202 295 C-193.7257774 286.68514544 -184.95114572 278.8507713 -175.9765625 271.296875 C-171.16026134 267.20025102 -167.02708159 262.86856133 -163 258 C-162.54496094 257.45730469 -162.08992187 256.91460938 -161.62109375 256.35546875 C-153.18169306 246.27567305 -145.41452343 235.85204765 -138 225 C-137.35683838 224.06704102 -137.35683838 224.06704102 -136.70068359 223.11523438 C-126.68928417 208.56882336 -117.82376721 193.28624461 -109 178 C-119.65135884 182.94198494 -125.34432222 188.27638002 -131.66796875 198.04541016 C-134.08637827 201.59412472 -136.83047443 204.87801464 -139.5625 208.1875 C-140.11856934 208.86385498 -140.67463867 209.54020996 -141.24755859 210.23706055 C-142.33131598 211.55337221 -143.41639781 212.86859476 -144.50292969 214.18261719 C-146.58459385 216.70967329 -148.63251175 219.26373365 -150.6875 221.8125 C-154.45604698 226.41773356 -158.40788304 230.82873534 -162.4453125 235.19921875 C-164.37245849 237.31200725 -166.24160495 239.44695925 -168.1015625 241.6171875 C-172.44354981 246.59225928 -177.08289077 251.26895494 -181.75048828 255.93579102 C-183.23893237 257.42641615 -184.71917277 258.92487017 -186.19921875 260.42382812 C-192.47086321 266.73221047 -199.00871541 272.48327423 -206 278 C-207.11965161 278.91524696 -208.23836028 279.83165072 -209.35546875 280.75 C-224.73830727 292.97139998 -245.50188558 306.31912973 -266 304 C-286.71612652 300.70697411 -302.95825906 286.45088457 -315 270 C-318.6073701 264.82939104 -321.85154237 259.45913379 -325 254 C-325.57596924 253.0107251 -325.57596924 253.0107251 -326.16357422 252.00146484 C-333.13596814 239.88525793 -338.2309124 227.11811367 -343 214 C-343.26248535 213.28666504 -343.5249707 212.57333008 -343.79541016 211.83837891 C-346.73960161 203.71124858 -348.03608431 197.17344942 -344.3984375 189.0703125 C-343.73918509 187.74750965 -343.06415585 186.43247288 -342.375 185.125 C-342.0130957 184.4252002 -341.65119141 183.72540039 -341.27832031 183.00439453 C-331.41667696 164.29665831 -316.66459335 149.84938751 -300.125 137 C-299.38677002 136.42306396 -298.64854004 135.84612793 -297.88793945 135.25170898 C-297.18499756 134.71489502 -296.48205566 134.17808105 -295.7578125 133.625 C-295.1302002 133.14289063 -294.50258789 132.66078125 -293.85595703 132.1640625 C-291.85214265 130.90726337 -290.33983092 130.32382372 -288 130 C-277.4940598 133.62834017 -269.58280641 140.05556944 -262 148 C-261.04222656 148.81339844 -260.08445312 149.62679687 -259.09765625 150.46484375 C-255.9405386 154.47484689 -256.87229904 158.63803999 -257.40966797 163.46484375 C-257.50189636 164.1697998 -257.59412476 164.87475586 -257.68914795 165.60107422 C-258.04361365 168.33657785 -258.35526908 171.07542957 -258.66455078 173.81640625 C-259.56630891 181.72481824 -260.53044575 189.62546633 -261.49145508 197.52685547 C-261.90472239 200.9342314 -262.31380733 204.34209155 -262.72265625 207.75 C-262.85076187 208.79067627 -262.97886749 209.83135254 -263.1108551 210.90356445 C-263.67737828 215.63078125 -264.16586499 220.22795765 -264 225 C-262.02 225 -260.04 225 -258 225 C-255.81057895 219.47431829 -254.15247149 213.99913432 -252.74609375 208.22265625 C-252 206 -252 206 -250 205 C-249.65388672 206.12148438 -249.65388672 206.12148438 -249.30078125 207.265625 C-246.94475597 214.96537402 -246.94475597 214.96537402 -241 220 C-237.99283702 220.51341807 -236.54663182 220.26550689 -233.8125 218.9375 C-228.8821085 213.6670815 -229.521526 205.35459043 -229.6875 198.56640625 C-230.40780415 184.73956779 -234.58827051 171.2802656 -238.73046875 158.16015625 C-238.95178467 157.42837158 -239.17310059 156.69658691 -239.40112305 155.94262695 C-239.88260922 154.38079025 -240.41736233 152.83542447 -240.96875 151.296875 C-241.01849079 147.64092684 -238.68587617 145.70582417 -236.3125 143.1875 C-235.28110019 142.03486664 -234.2539137 140.87845241 -233.23046875 139.71875 C-232.42681885 138.80996094 -232.42681885 138.80996094 -231.60693359 137.8828125 C-228.95115287 134.77108644 -226.54498453 131.48374142 -224.125 128.1875 C-219.8903907 122.46200755 -215.54694683 116.84485221 -211.0625 111.3125 C-210.53092285 110.65338623 -209.9993457 109.99427246 -209.45166016 109.31518555 C-204.45385317 103.18942877 -200.27218112 98.55323259 -192.625 95.875 C-191.92528076 95.62347168 -191.22556152 95.37194336 -190.50463867 95.11279297 C-174.40585752 89.53004899 -156.24104873 86.73092385 -140.27734375 94.2890625 C-135.2281373 97.20776916 -130.78190967 100.73691293 -126.25 104.38671875 C-122.76697131 106.8840987 -118.98997042 108.48135878 -115 110 C-122.86391119 96.14055368 -130.31124585 88.24786804 -145.984375 83.76171875 C-166.04347196 78.69497794 -186.41454161 83.89687807 -205 92 C-206.63313724 90.36686276 -206.26218281 88.43503344 -206.39453125 86.1796875 C-207.38543084 71.14842864 -208.57971496 57.28286196 -216.046875 43.85546875 C-217 42 -217 42 -217 40 C-216.45811035 39.89977539 -215.9162207 39.79955078 -215.35791016 39.69628906 C-187.82754133 34.58325783 -160.67961493 28.31797339 -134.09326172 19.46670532 C-102.20588027 8.86806671 -69.11178342 5.12864048 -35.8125 1.6875 C-34.98999756 1.60023651 -34.16749512 1.51297302 -33.32006836 1.42306519 C-22.17460663 0.25259026 -11.20555201 -0.21743585 0 0 Z " fill="#756A4C" transform="translate(737,266)"/>
<path d="M0 0 C1.83279079 3.66558159 1.43008831 7.29202338 0.45703125 11.15625 C-9.27073573 38.55841051 -34.30749003 58.30499018 -59.4296875 70.8984375 C-96.92286734 88.72199271 -134.38097736 84.94415598 -173.69796753 76.47363281 C-233.42303227 63.61155236 -291.1619909 66.27323664 -344.40234375 99.09765625 C-349.8159051 102.64070586 -355.00434133 106.4239161 -360.0625 110.45703125 C-362.01378684 112.01097944 -363.99813043 113.5120032 -366 115 C-364.6224718 109.35657803 -362.4728985 104.67437892 -359.625 99.625 C-359.18728271 98.84479492 -358.74956543 98.06458984 -358.29858398 97.26074219 C-345.95382325 75.70136754 -329.43436187 56.52068398 -313 38 C-312.24589844 37.14148438 -311.49179687 36.28296875 -310.71484375 35.3984375 C-309.92207031 34.50382812 -309.12929688 33.60921875 -308.3125 32.6875 C-307.58675781 31.86636719 -306.86101562 31.04523438 -306.11328125 30.19921875 C-304.18925315 28.19694921 -302.27230025 26.5849679 -300 25 C-298.77990234 25.74443359 -298.77990234 25.74443359 -297.53515625 26.50390625 C-291.02192394 30.39757112 -284.44136602 33.88025752 -277.4375 36.8125 C-276.79111572 37.089729 -276.14473145 37.36695801 -275.47875977 37.65258789 C-264.02367848 42.30035206 -252.5979368 43.58319264 -240.3125 43.5 C-239.59689911 43.49790527 -238.88129822 43.49581055 -238.14401245 43.49365234 C-206.06430117 43.30183213 -176.37633839 32.4566723 -146.95068359 20.58740234 C-90.44409169 -2.16511738 -90.44409169 -2.16511738 -77 -1 C-66.34756737 -0.19604282 -55.75266442 0.18643089 -45.07128906 0.18530273 C-42.73745044 0.18751188 -40.40406973 0.20583594 -38.0703125 0.22460938 C-30.35716892 0.2526218 -23.03233889 -0.01991802 -15.43432617 -1.54467773 C-10.0495425 -2.55186072 -4.93377955 -2.69115248 0 0 Z " fill="#925D1F" transform="translate(778,120)"/>
<path d="M0 0 C8.49634379 6.10494007 13.5859488 14.90283905 18.125 24.125 C22.83154079 33.43659489 27.80715932 42.54010691 33.07299805 51.54760742 C38.1513871 60.35190595 41.77756215 68.20846328 42.4375 78.4375 C41.15516479 78.84923462 41.15516479 78.84923462 39.84692383 79.26928711 C17.93554167 86.34479245 -3.65402003 94.09584771 -25.15516663 102.33300781 C-60.88791085 116.01374291 -60.88791085 116.01374291 -71.9375 118.375 C-72.7728125 118.56900391 -73.608125 118.76300781 -74.46875 118.96289062 C-92.68739501 123.08921383 -111.05829298 123.26974647 -128.5625 116.4375 C-129.61074951 116.0360376 -129.61074951 116.0360376 -130.68017578 115.62646484 C-152.15804256 107.24641488 -152.15804256 107.24641488 -155.5625 100.4375 C-155.90247046 94.27723535 -155.00572199 89.00347984 -153.4375 83.0625 C-153.2094165 82.18746826 -152.98133301 81.31243652 -152.74633789 80.41088867 C-152.03803594 77.74724041 -151.30632486 75.0914309 -150.5625 72.4375 C-150.35383301 71.68645996 -150.14516602 70.93541992 -149.93017578 70.16162109 C-147.0857243 60.1981208 -143.10685488 50.86411658 -138.6875 41.5 C-138.20595459 40.46979736 -137.72440918 39.43959473 -137.22827148 38.37817383 C-131.57854181 26.734459 -125.2730077 16.23847016 -112.828125 11.3671875 C-104.70686834 8.80151686 -96.28897142 7.30133011 -87.9375 5.6875 C-86.24004639 5.35286743 -86.24004639 5.35286743 -84.50830078 5.01147461 C-77.11341312 3.6450163 -70.07724902 3.16163566 -62.5625 3.4375 C-65.23813685 5.2212579 -67.08974002 6.04518522 -70.09765625 6.98828125 C-70.98501465 7.27195557 -71.87237305 7.55562988 -72.78662109 7.84790039 C-73.72328613 8.14559326 -74.65995117 8.44328613 -75.625 8.75 C-88.80468041 13.05809828 -100.91494922 17.14763964 -107.62890625 30.11328125 C-109.02441827 33.58746389 -109.35913092 36.7090669 -109.5625 40.4375 C-92.82104079 41.12082487 -74.56968538 30.48801532 -62.5625 19.4375 C-60.65364646 17.55254031 -58.75690865 15.6612985 -56.875 13.75 C-49.99541142 6.76442336 -43.36814243 2.65838645 -34.5625 -1.5625 C-33.44875 -2.14 -32.335 -2.7175 -31.1875 -3.3125 C-20.81426694 -8.25213479 -9.45416579 -5.70482141 0 0 Z " fill="#D79950" transform="translate(644.5625,34.5625)"/>
<path d="M0 0 C1.00415451 0.0002417 1.00415451 0.0002417 2.02859497 0.00048828 C14.59809358 0.02140787 26.85250021 1.24829786 39.25 3.3125 C38.1171138 6.83703486 36.94272119 10.23658689 35.3125 13.5625 C34.99410156 14.22765625 34.67570313 14.8928125 34.34765625 15.578125 C33.25 17.3125 33.25 17.3125 30.25 19.3125 C27.0625 18.9375 27.0625 18.9375 24.25 18.3125 C25.5589572 21.43447478 25.5589572 21.43447478 28.25 23.3125 C30.80157655 23.3841735 33.32472971 23.40558442 35.875 23.375 C36.58140625 23.37048828 37.2878125 23.36597656 38.015625 23.36132812 C39.76045275 23.34953875 41.505237 23.33160324 43.25 23.3125 C43.41435547 24.61574219 43.41435547 24.61574219 43.58203125 25.9453125 C44.81239777 36.01813252 44.81239777 36.01813252 50.25 44.3125 C53.33347826 44.47931109 53.33347826 44.47931109 56.25 44.3125 C59.81639474 38.81430811 60.15769478 33.65780031 59.25 27.3125 C58.06521061 23.60117256 56.6253711 20.41214446 54.25 17.3125 C51.14050521 15.57329687 51.14050521 15.57329687 48.25 15.3125 C48.58 12.3425 48.91 9.3725 49.25 6.3125 C59.43329606 7.05811746 69.29836109 9.20280248 79.28686523 11.22583008 C94.44611982 14.28492932 109.26500972 16.66684214 124.76660156 16.57324219 C126.88114833 16.56246867 128.99485272 16.57324646 131.109375 16.5859375 C139.64743101 16.59393559 147.83815366 15.84621998 156.25 14.3125 C160.1875 13.75 160.1875 13.75 163.25 14.3125 C168.50240113 18.3048239 170.92508782 24.00548003 172.25 30.3125 C173.16199055 38.52041492 170.59407344 45.73141475 165.4375 52.1875 C160.89797407 57.03575943 155.95133831 59.6587109 149.25 60.3125 C149.105625 61.611875 148.96125 62.91125 148.8125 64.25 C148.375 68.1875 148.375 68.1875 147.25 69.3125 C144.25606817 69.78348352 141.27119742 70.19922943 138.265625 70.58203125 C136.35936477 70.83390696 134.45311515 71.08586301 132.546875 71.33789062 C129.55754732 71.72800272 126.56798974 72.11622292 123.578125 72.50219727 C97.37786081 75.8543612 97.37786081 75.8543612 71.8125 82.3125 C61.08643408 85.53234931 50.30464691 87.58396966 39.25 89.3125 C38.42564453 89.4475293 37.60128906 89.58255859 36.75195312 89.72167969 C20.21747494 92.38534861 3.51482723 93.28780916 -13.18408203 94.31079102 C-14.6117691 94.4002726 -14.6117691 94.4002726 -16.06829834 94.49156189 C-17.88383609 94.6047202 -19.69963376 94.71379807 -21.51568604 94.81837463 C-25.45494399 94.69764747 -25.45494399 94.69764747 -28.75 96.3125 C-29.16806075 98.67232725 -29.16806075 98.67232725 -28.75 101.3125 C-27.05722526 103.53079562 -27.05722526 103.53079562 -24.75 105.625 C-16.6995396 114.13330649 -10.88051088 125.55518685 -9.75 137.3125 C-36.27915974 119.74989984 -50.48071991 86.03751046 -56.8046875 56.078125 C-57.12261987 54.49014696 -57.4381074 52.90167534 -57.75 51.3125 C-57.95753906 50.29414063 -58.16507812 49.27578125 -58.37890625 48.2265625 C-58.8808654 44.28486224 -58.85621953 40.40588791 -58.8125 36.4375 C-58.80798828 35.65375 -58.80347656 34.87 -58.79882812 34.0625 C-58.78714093 32.14579986 -58.76920908 30.22913952 -58.75 28.3125 C-54.078125 27.1796875 -54.078125 27.1796875 -51.125 28.375 C-48.15748525 30.7958673 -46.91795721 32.66263371 -45.75 36.3125 C-46.75 37.97916667 -47.75 39.64583333 -48.75 41.3125 C-49.81008884 48.67422807 -48.69336376 54.99769755 -44.75 61.3125 C-43.00213315 63.52624725 -43.00213315 63.52624725 -40.75 64.3125 C-38.1066226 64.40055146 -38.1066226 64.40055146 -35.75 63.3125 C-33.3278994 59.84165481 -33.513636 56.56872889 -33.5625 52.4375 C-33.56894531 51.24382812 -33.57539063 50.05015625 -33.58203125 48.8203125 C-33.73769878 45.56939515 -34.13965044 42.50584892 -34.75 39.3125 C-33.821875 38.920625 -32.89375 38.52875 -31.9375 38.125 C-28.52449882 36.18427384 -27.43801596 34.78231059 -25.75 31.3125 C-26.306875 31.663125 -26.86375 32.01375 -27.4375 32.375 C-30.45821799 33.5996154 -31.6484954 33.31212163 -34.75 32.3125 C-36.75989194 30.67033968 -38.62061402 29.02597845 -40.5 27.25 C-44.04439337 24.08448059 -46.85226933 21.60876357 -51.8125 21.625 C-55.63719945 22.19248845 -55.63719945 22.19248845 -58.75 23.3125 C-58.875 16.6875 -58.875 16.6875 -57.75 13.3125 C-50.28448481 9.47488966 -42.02795629 6.96251685 -34 4.5625 C-33.0109668 4.26496826 -33.0109668 4.26496826 -32.00195312 3.96142578 C-21.32720886 0.89388005 -11.09814197 -0.04419095 0 0 Z " fill="#FBE3C0" transform="translate(529.75,194.6875)"/>
<path d="M0 0 C10.27014264 4.96390228 17.79464097 14.69196146 24 24 C32.33592007 23.49718416 39.73886998 21.48900734 47.671875 18.99609375 C48.56132812 18.72667969 49.45078125 18.45726562 50.3671875 18.1796875 C51.16237793 17.92944824 51.95756836 17.67920898 52.77685547 17.42138672 C55.24352359 16.95384124 56.6726246 17.08276668 59 18 C62.15719126 24.31438252 59.14969651 31.74773521 57.15625 37.984375 C56.19819166 40.48309472 55.30988392 42.19551468 53.75 44.3125 C51.43960976 47.87988417 51.90838546 51.5419159 52.0625 55.625 C52.30603573 63.21343207 51.61192005 70.66821809 47 77 C44.4414019 78.38429709 41.78388364 79.18415504 39 80 C18.53917231 87.03204035 -0.42246225 97.30538764 -15.8125 112.75 C-19.02711356 115.69468418 -21.19320205 116.55899244 -25.5625 116.75 C-33.2442381 116.09737323 -37.94885247 113.39092699 -43.25 107.875 C-47.9747041 102.22023604 -50.59720729 96.51005073 -51.4375 89.1875 C-50.94116881 85.57137274 -50.14933463 83.93501578 -48 81 C-45.08203125 78.98046875 -45.08203125 78.98046875 -41.8125 77.1875 C-40.72582031 76.58292969 -39.63914062 75.97835937 -38.51953125 75.35546875 C-37.68808594 74.90816406 -36.85664063 74.46085937 -36 74 C-36.14295891 72.60386935 -36.28951558 71.20810692 -36.4375 69.8125 C-36.51871094 69.03519531 -36.59992188 68.25789063 -36.68359375 67.45703125 C-36.95413611 65.02592118 -36.95413611 65.02592118 -37.51953125 62.78515625 C-38.21875173 58.73195136 -38.22457613 54.73095522 -38.25 50.625 C-38.270625 49.8 -38.29125 48.975 -38.3125 48.125 C-38.34722453 42.65588598 -37.65054176 38.81916683 -35 34 C-32.625 32.875 -32.625 32.875 -30 33 C-28.33333333 34 -26.66666667 35 -25 36 C-22.37955856 35.64281101 -22.37955856 35.64281101 -20 35 C-19.83564453 33.33324219 -19.83564453 33.33324219 -19.66796875 31.6328125 C-17.30026061 8.85515268 -17.30026061 8.85515268 -9 0 C-5.88833142 -1.55583429 -3.21082662 -0.96202248 0 0 Z " fill="#FCE3C0" transform="translate(396,302)"/>
<path d="M0 0 C0.66 0 1.32 0 2 0 C6.79307604 9.09665747 10.79285852 18.13959025 14 27.9375 C14.20999634 28.57517303 14.41999268 29.21284607 14.63635254 29.86984253 C27.15448897 68.11859331 36.49989796 113.61385868 35 154 C34.443125 153.59007812 33.88625 153.18015625 33.3125 152.7578125 C24.49252334 146.53019385 16.80541744 144.93695146 6 146 C-9.17772452 149.32199213 -23.98315038 158.70509775 -34.7734375 169.828125 C-36 171 -36 171 -38 171 C-38.70115321 165.882161 -39.3945098 160.76334111 -40.08129883 155.64355469 C-40.31494351 153.90955566 -40.55055332 152.17582005 -40.78833008 150.44238281 C-41.47563492 145.42636521 -42.12626971 140.40810971 -42.71789551 135.37985229 C-42.90103518 133.83487384 -43.09175926 132.29076857 -43.29138184 130.74783325 C-44.52800716 120.92348583 -43.7947709 114.1479753 -38.875 105.4375 C-37.75089827 103.271804 -36.63401808 101.10234823 -35.5234375 98.9296875 C-34.94045898 97.80272461 -34.35748047 96.67576172 -33.75683594 95.51464844 C-30.7389677 89.47723443 -28.09753045 83.28904885 -25.5 77.0625 C-25.23175415 76.42001312 -24.9635083 75.77752625 -24.68713379 75.11557007 C-14.52317626 50.64299193 -6.02138317 25.82171984 0 0 Z " fill="#463C1B" transform="translate(726,406)"/>
<path d="M0 0 C1.55388428 0.25692627 1.55388428 0.25692627 3.13916016 0.51904297 C31.44719242 5.25923718 31.44719242 5.25923718 60 8 C61.35907471 8.08241943 61.35907471 8.08241943 62.74560547 8.16650391 C77.49637844 9.02496091 92.22803011 9.12753062 107 9 C106.02006336 42.95987328 106.02006336 42.95987328 102 51 C99.64575658 51.45387392 97.37792966 51.77943141 95 52.03515625 C93.93543579 52.16053017 93.93543579 52.16053017 92.84936523 52.28843689 C90.56715086 52.55513178 88.28370747 52.80894166 86 53.0625 C84.49078806 53.23678922 82.98167187 53.41190974 81.47265625 53.58789062 C77.99678446 53.99104527 74.52034286 54.38795152 71.04206848 54.76986694 C69.63521599 54.92841367 68.22937727 55.09613528 66.82450867 55.27139282 C61.41688433 55.92769379 56.08979678 56.17442938 50.64453125 56.203125 C49.78043137 56.20882507 48.91633148 56.21452515 48.02604675 56.22039795 C46.20837604 56.22978074 44.39068884 56.23635491 42.57299805 56.24023438 C39.83676445 56.24991416 37.10129166 56.28099165 34.36523438 56.3125 C24.32472481 56.37402762 14.63194942 56.21315226 5 53 C4.0610791 52.702146 3.1221582 52.40429199 2.15478516 52.09741211 C-0.4809931 49.53181376 -0.37786265 48.65989903 -0.56762695 45.06958008 C-0.56683445 42.96939741 -0.53853393 40.86911277 -0.48828125 38.76953125 C-0.48120651 37.66397385 -0.47413177 36.55841644 -0.46684265 35.4193573 C-0.43882049 31.88305419 -0.37606379 28.34832574 -0.3125 24.8125 C-0.28742742 22.41734055 -0.26461245 20.02215632 -0.24414062 17.62695312 C-0.18896818 11.75076346 -0.10526308 5.8754942 0 0 Z " fill="#115FA9" transform="translate(513,911)"/>
<path d="M0 0 C0.66 0 1.32 0 2 0 C2.98106261 62.17348168 3.12955955 124.33658782 3.07202661 186.51689255 C3.0605484 199.15685293 3.05527695 211.79681408 3.05032361 224.43677843 C3.04006307 250.29119141 3.02265097 276.14559509 3 302 C-2.73837963 302.15637764 -5.67213483 302.03278345 -10 298 C-16.84419439 284.94635506 -15.35821685 267.99231242 -15.3125 253.75 C-15.31134186 252.63087219 -15.31018372 251.51174438 -15.30899048 250.35870361 C-15.26638796 229.30338703 -14.13172457 208.41184523 -12.6348877 187.41807556 C-11.84655115 176.17508845 -11.30008668 164.92115533 -10.74215698 153.66482544 C-8.18414349 102.37376532 -4.07536306 51.18825495 0 0 Z " fill="#463C1B" transform="translate(468,590)"/>
<path d="M0 0 C3.69928197 1.33174151 7.08574983 3.06152506 10.578125 4.859375 C33.7233437 16.36098675 64.86707341 14.52412125 89.72998047 11.83666992 C95.23473492 11.24419923 100.58667199 11.03558199 106.125 11.125 C104.805 16.405 103.485 21.685 102.125 27.125 C97.06429162 28.57091668 92.70912437 29.58489777 87.5625 30.25 C86.30308594 30.41757812 85.04367187 30.58515625 83.74609375 30.7578125 C74.85056833 31.65983989 74.85056833 31.65983989 72 29.55859375 C70.74869987 28.22648048 69.49870138 26.89314335 68.25 25.55859375 C66.15670561 23.83750312 66.15670561 23.83750312 63.26953125 24.265625 C60.02432236 25.15251439 56.95013056 26.22378183 53.8125 27.4375 C40.29773318 32.36715794 26.39189121 34.84534502 12.125 36.375 C11.36329498 36.4590509 10.60158997 36.54310181 9.81680298 36.62969971 C-1.68636316 37.8760931 -13.11785502 38.50202196 -24.6875 38.5 C-25.99525391 38.50161133 -27.30300781 38.50322266 -28.65039062 38.50488281 C-52.46734903 38.22993075 -52.46734903 38.22993075 -59.875 33.125 C-59.55538224 30.14697421 -59.29350202 28.54729795 -57.15234375 26.38671875 C-45.05942388 18.25074762 -32.36544519 12.62698436 -18.58886719 8.00219727 C-13.42350336 6.23042294 -9.02641348 4.22611954 -4.53662109 1.09692383 C-2.875 0.125 -2.875 0.125 0 0 Z " fill="#915D1F" transform="translate(507.875,968.875)"/>
<path d="M0 0 C2.57957649 2.16684425 2.99122099 2.96839556 3.9375 6.375 C5.16283961 20.972524 -5.87652871 35.92168612 -14.7265625 46.59765625 C-16.30181873 48.93659107 -16.30181873 48.93659107 -15.42578125 51.50390625 C-13.94359904 54.0987403 -12.34444616 56.47607894 -10.5625 58.875 C-5.8037914 65.57684795 -3.2908428 70.63194503 -4 79 C-4.66 79.66 -5.32 80.32 -6 81 C-16.40455667 80.7832384 -25.77613113 74.00069243 -33 67 C-42.45691907 55.47097181 -42.45691907 55.47097181 -42.33984375 48.27734375 C-41.0722518 39.78302071 -33.71375423 31.76556166 -27.0625 26.8125 C-24.70517033 25.15019645 -24.70517033 25.15019645 -24.6875 22.25 C-24.8421875 21.13625 -24.8421875 21.13625 -25 20 C-28.37455596 18.85851434 -29.68851857 18.85671038 -32.98046875 20.37109375 C-34.03878906 21.05300781 -35.09710937 21.73492188 -36.1875 22.4375 C-36.75629883 22.80367432 -37.32509766 23.16984863 -37.91113281 23.54711914 C-50.77717069 31.97354412 -61.23736509 41.64627113 -69 55 C-71.71941147 50.92088279 -71.85828295 47.69762503 -71 43 C-67.95279512 35.22831033 -64.10745591 27.80435636 -58 22 C-57.42894531 21.45472656 -56.85789062 20.90945313 -56.26953125 20.34765625 C-47.40862236 12.29062363 -37.78995734 5.22743275 -27 0 C-26.31421875 -0.3403125 -25.6284375 -0.680625 -24.921875 -1.03125 C-16.64071295 -4.66688212 -8.00535542 -3.85972494 0 0 Z " fill="#FAE2BF" transform="translate(751,563)"/>
<path d="M0 0 C0.33 0 0.66 0 1 0 C1.07476563 0.75023437 1.14953125 1.50046875 1.2265625 2.2734375 C2.90425941 15.33315655 9.17761913 23.4653093 19 32 C20.06992187 32.49886719 21.13984375 32.99773438 22.2421875 33.51171875 C25.52188997 36.47088373 25.48949521 37.35677745 25.8828125 41.62109375 C25.98661102 43.8922922 26.06616581 46.16469225 26.125 48.4375 C26.76542603 66.31613013 26.76542603 66.31613013 36 81 C39.47286118 83.54676486 42.79149443 83.3628022 47 83 C51.77686634 81.14774571 55.20205969 78.34580456 59 75 C58.2979429 81.59933675 56.92569717 87.84185664 53.4375 93.5625 C49.51786458 95.87407986 45.43873853 95.3049515 41 95 C39.45038858 99.9611396 40.58968276 104.16281867 41.65234375 109.09765625 C41.92081871 110.4045768 41.92081871 110.4045768 42.19471741 111.73789978 C42.76653785 114.51474695 43.35126799 117.28866277 43.9375 120.0625 C44.51815555 122.84026961 45.09601763 125.61856701 45.66957092 128.39781189 C46.02666295 130.12497415 46.38818162 131.8512285 46.75462341 133.57643127 C46.99971397 134.75301552 46.99971397 134.75301552 47.24975586 135.95336914 C47.3948912 136.64000137 47.54002655 137.32663361 47.68955994 138.03407288 C48 140 48 140 48 144 C41.73 144 35.46 144 29 144 C27.2043714 138.61311419 25.56314391 133.62060039 24.2734375 128.16015625 C24.05036423 127.21958374 24.05036423 127.21958374 23.82278442 126.26000977 C23.33525152 124.19529768 22.85470938 122.1290428 22.375 120.0625 C22.20492432 119.33602264 22.03484863 118.60954529 21.85961914 117.86105347 C18.5059678 103.5251217 15.4224082 89.13401062 12.37011719 74.73144531 C9.59687137 61.66498335 6.68160975 48.63617936 3.65039062 35.62719727 C2.12837304 29.0815395 0.64534639 22.52805458 -0.7265625 15.94921875 C-0.97229004 14.78092529 -1.21801758 13.61263184 -1.47119141 12.40893555 C-2.02292195 8.85223493 -2.23035723 5.59252828 -2 2 C-1.34 1.34 -0.68 0.68 0 0 Z " fill="#BAB7B6" transform="translate(699,609)"/>
<path d="M0 0 C-1.10372229 3.31116687 -1.80591035 3.8820204 -4.4375 6 C-18.78113943 18.29088245 -28.6734828 33.19278088 -32 52 C-33.53670011 74.23446092 -29.33208457 93.10012875 -22.08300781 113.89013672 C-20.16729533 119.39111634 -18.28018028 124.90137804 -16.41461182 130.41952515 C-15.77228302 132.30943709 -15.11852019 134.19545102 -14.46435547 136.08129883 C-10.0472179 149.11615081 -7.43656155 161.7102437 -7.5625 175.5 C-7.56934814 176.66909912 -7.57619629 177.83819824 -7.58325195 179.04272461 C-7.81391004 191.48357529 -10.0646714 203.38470112 -17 214 C-19.95664519 215.4783226 -22.74229737 215.06032783 -26 215 C-25.5875 213.783125 -25.175 212.56625 -24.75 211.3125 C-13.55809907 177.68350244 -20.49288607 152.21708979 -31.6890564 119.72601318 C-33.574485 114.25450525 -35.43130286 108.77401195 -37.265625 103.28515625 C-37.51238983 102.54969574 -37.75915466 101.81423523 -38.01339722 101.05648804 C-45.32194691 79.13336513 -46.62696332 54.35668641 -36.31445312 33.1965332 C-29.94863027 20.82940221 -15.73387018 -1.60549696 0 0 Z " fill="#EDEDEF" transform="translate(284,106)"/>
<path d="M0 0 C10.79005043 -0.50446989 19.67695003 0.44184235 30 4 C33.96 5.32 37.92 6.64 42 8 C42 24.5 42 41 42 58 C28.20508713 57.08033914 14.09427547 56.1230443 4.37109375 45.1640625 C0.2639647 39.6176831 -0.14104668 35.28706813 -0.09765625 28.61328125 C-0.0962413 27.79627243 -0.09482635 26.97926361 -0.09336853 26.13749695 C-0.08777294 23.52912732 -0.07522129 20.92084366 -0.0625 18.3125 C-0.05748443 16.54362103 -0.05292162 14.77474072 -0.04882812 13.00585938 C-0.03780496 8.67053981 -0.02054338 4.33528448 0 0 Z " fill="#115FA9" transform="translate(462,901)"/>
<path d="M0 0 C0.12677124 1.00691895 0.12677124 1.00691895 0.25610352 2.03417969 C2.42644251 18.84542368 5.71970198 35.0476161 10.0546875 51.42675781 C19.17229085 85.89092172 19.17229085 85.89092172 20 98 C20.10441406 99.46566406 20.10441406 99.46566406 20.2109375 100.9609375 C21.03502949 124.60603837 11.28847499 147.54011029 -3.43603516 165.65625 C-6.31699188 168.13155219 -9.31023269 167.93638332 -13 168 C-12.38604088 163.9751569 -10.18356235 161.09170458 -7.9375 157.8125 C2.71429552 141.64088447 9.19805623 125.05225147 9.5 105.5625 C9.51869141 104.7777832 9.53738281 103.99306641 9.55664062 103.18457031 C9.40700116 88.85946931 4.39995213 74.48370767 0.65155029 60.77124023 C-10.2477293 20.68639558 -10.2477293 20.68639558 -9 1 C-3.375 -1.125 -3.375 -1.125 0 0 Z " fill="#EDEDEF" transform="translate(280,175)"/>
<path d="M0 0 C0.30292969 0.59167969 0.60585938 1.18335938 0.91796875 1.79296875 C3.45738616 6.58270066 5.87059938 10.38677446 10 14 C10.763125 14.680625 11.52625 15.36125 12.3125 16.0625 C17.43632094 19.75641742 22.95474121 22.18642236 29 24 C29 24.33 29 24.66 29 25 C22.97584175 25.05034655 16.95181232 25.08615481 10.92749023 25.10986328 C8.88840597 25.11977183 6.84933532 25.13330247 4.81030273 25.15087891 C-42.21839221 25.54539547 -42.21839221 25.54539547 -58 17 C-57.50525738 12.44075643 -57.50525738 12.44075643 -55.34765625 10.55859375 C-39.30057058 2.68592095 -17.74886239 -0.48560499 0 0 Z " fill="#905C1F" transform="translate(454,941)"/>
<path d="M0 0 C3.63986479 21.09980244 3.63986479 21.09980244 0.2109375 27.1640625 C-2.77198953 29.37266039 -5.53108523 30.67869426 -9 32 C-10.24468761 32.55036983 -11.48683017 33.10652601 -12.7265625 33.66796875 C-31.23233923 41.77296461 -31.23233923 41.77296461 -39 41 C-42.98097062 37.01902938 -45.94844518 33.18233844 -46.04296875 27.34765625 C-46.02878906 26.57292969 -46.01460938 25.79820312 -46 25 C-45.01386719 24.45214844 -44.02773438 23.90429688 -43.01171875 23.33984375 C-42.00032837 22.77789307 -42.00032837 22.77789307 -40.96850586 22.20458984 C-39.42389965 21.34656713 -37.87913582 20.48882811 -36.33422852 19.63134766 C-31.78133253 17.10366461 -27.23086458 14.57173383 -22.68437195 12.032547 C-20.21663088 10.65466016 -17.74796303 9.27843859 -15.27920532 7.90237427 C-14.04910845 7.21617878 -12.81943426 6.52922503 -11.59017944 5.84152222 C-9.85155967 4.86898553 -8.11136067 3.89927369 -6.37109375 2.9296875 C-5.35974365 2.36491699 -4.34839355 1.80014648 -3.30639648 1.21826172 C-1 0 -1 0 0 0 Z " fill="#915D1F" transform="translate(349,347)"/>
<path d="M0 0 C1.423125 0.433125 1.423125 0.433125 2.875 0.875 C6.78757406 2.02481768 10.73421572 2.65375198 14.765625 3.2421875 C17.7544858 4.25589204 18.55836974 5.19503888 20 8 C20.86259689 15.9674272 20.50061915 24.36653103 18 32 C15 33 15 33 11.1875 32.75 C7.82561283 32.68797256 6.15966462 33.22951619 3.5625 35.375 C1.01309583 37.71982856 1.01309583 37.71982856 0 40 C-1.093125 40.309375 -2.18625 40.61875 -3.3125 40.9375 C-6.73010181 41.92223273 -8.31724871 42.8265569 -11 45 C-12.23024451 43.45469287 -13.4336242 41.88796799 -14.625 40.3125 C-15.29789063 39.44238281 -15.97078125 38.57226562 -16.6640625 37.67578125 C-18 35 -18 35 -17.41015625 32.44140625 C-16.01139177 30.01972259 -14.51363547 27.84387235 -12.8125 25.625 C-7.20923398 17.82966129 -3.4797685 8.91160224 0 0 Z " fill="#FBE2BF" transform="translate(763,579)"/>
<path d="M0 0 C2.25 0.75 2.25 0.75 3.25 1.75 C3.33713831 3.45772358 3.35700007 5.16898649 3.34765625 6.87890625 C3.34443359 7.91337891 3.34121094 8.94785156 3.33789062 10.01367188 C3.32532227 11.6465918 3.32532227 11.6465918 3.3125 13.3125 C3.30798828 14.40498047 3.30347656 15.49746094 3.29882812 16.62304688 C3.28699826 19.33208495 3.27051543 22.04101599 3.25 24.75 C2.280625 24.95753906 1.31125 25.16507813 0.3125 25.37890625 C-8.6271105 27.39662045 -16.72588439 30.2021042 -25.03125 34.06640625 C-36.7479934 39.46943977 -36.7479934 39.46943977 -41.75 37.75 C-42.62596976 34.80212573 -42.93511106 33.23175347 -41.81640625 30.3203125 C-41.07197266 29.10988281 -41.07197266 29.10988281 -40.3125 27.875 C-39.83941406 27.07320312 -39.36632812 26.27140625 -38.87890625 25.4453125 C-33.22725941 18.2900165 -25.79528945 13.64513854 -18.0625 9 C-17.13888672 8.43667969 -16.21527344 7.87335938 -15.26367188 7.29296875 C-12.76392997 5.77044776 -10.25895109 4.2572845 -7.75 2.75 C-6.88270264 2.19022461 -6.01540527 1.63044922 -5.12182617 1.05371094 C-2.75 -0.25 -2.75 -0.25 0 0 Z " fill="#905C1F" transform="translate(459.75,215.25)"/>
<path d="M0 0 C3.13608345 1.36145308 4.9145345 2.79511789 7.0625 5.4375 C13.92412026 13.50136997 20.98602957 20.87486324 30.1015625 26.3671875 C32.60849112 28.52335244 32.67116452 29.73448098 33 33 C33.18304687 34.20269531 33.36609375 35.40539062 33.5546875 36.64453125 C34.33478407 44.79874824 33.63692822 50.17169795 28.49462891 56.76049805 C24.84409556 61.03194756 20.97648403 65.03468378 17 69 C17.66061414 65.40486833 18.55386927 61.90509255 19.51171875 58.37866211 C21.73184409 50.05023979 23.68976827 42.60845891 20.625 34.25 C14.56930976 25.34457317 2.84740955 23.1336054 -7 21 C-8.99712028 20.6498262 -10.99631072 20.31038745 -13 20 C-10.17619669 12.38509913 -5.29907615 6.07835206 0 0 Z " fill="#453C1B" transform="translate(490,318)"/>
<path d="M0 0 C3.875 0.875 3.875 0.875 5 2 C6.02298793 13.31188576 4.1355278 24.72405763 2.75390625 35.92578125 C2.63031738 36.9617041 2.50672852 37.99762695 2.37939453 39.06494141 C2.13936808 40.92182559 1.86348752 42.7747264 1.53857422 44.61865234 C0.75158465 49.403101 0.75158465 49.403101 2.578125 53.82421875 C5.17275123 56.15519748 7.7687904 58.00247988 10.75 59.8125 C12.22726562 60.71935547 12.22726562 60.71935547 13.734375 61.64453125 C14.48203125 62.09183594 15.2296875 62.53914063 16 63 C15.203125 67.7734375 15.203125 67.7734375 13.375 69.8125 C9.95372892 71.52313554 7.8168392 71.41554298 4 71 C0.93756639 69.48262717 -1.67645705 67.52228595 -4.375 65.4375 C-5.09816406 64.92380859 -5.82132813 64.41011719 -6.56640625 63.88085938 C-9.89486969 61.36733867 -11.7249158 59.73533834 -13.20703125 55.7734375 C-12.91687891 50.48500047 -11.18302084 46.10865051 -9.3125 41.1875 C-4.94642988 29.05436101 -2.89015005 17.00172428 -1.35375977 4.23291016 C-1 2 -1 2 0 0 Z " fill="#23221F" transform="translate(530,214)"/>
<path d="M0 0 C-1.31483573 2.91834217 -2.71633276 4.94920929 -5.01171875 7.171875 C-5.60098145 7.749375 -6.19024414 8.326875 -6.79736328 8.921875 C-7.4211084 9.52515625 -8.04485352 10.1284375 -8.6875 10.75 C-13.68731533 15.67041317 -18.47814297 20.63393361 -23 26 C-23.89694026 27.02344952 -24.79553732 28.04544819 -25.6953125 29.06640625 C-32.97107311 37.36838724 -39.60173709 46.00716591 -46 55 C-50.69727143 50.50002915 -52.32184596 47.46612067 -53.5625 41.125 C-51.64220698 30.45670542 -36.1346334 21.32381602 -27.78173828 15.43652344 C-5.0871476 0 -5.0871476 0 0 0 Z " fill="#115EA6" transform="translate(426,395)"/>
<path d="M0 0 C0.66 0 1.32 0 2 0 C2.70242071 2.53836153 3.38710202 5.07944063 4.0625 7.625 C4.26166016 8.33785156 4.46082031 9.05070313 4.66601562 9.78515625 C6.04244 15.0493758 6.55077356 19.24197866 3.765625 24.1953125 C-2.06417547 31.61779041 -2.06417547 31.61779041 -6 34 C-8.0625 34.125 -8.0625 34.125 -10 33 C-17.52594247 23.48189629 -17.17328287 12.5521913 -17 1 C-15.85660156 1.01160156 -14.71320312 1.02320313 -13.53515625 1.03515625 C-12.04427246 1.04453288 -10.55338691 1.05363321 -9.0625 1.0625 C-8.30775391 1.07087891 -7.55300781 1.07925781 -6.77539062 1.08789062 C-4.85005687 1.09652441 -2.92464419 1.05224333 -1 1 C-0.67 0.67 -0.34 0.34 0 0 Z " fill="#F7DFBD" transform="translate(750,650)"/>
<path d="M0 0 C0.33 0 0.66 0 1 0 C1.1544458 0.74306396 1.3088916 1.48612793 1.46801758 2.25170898 C6.63015533 27.00798779 12.15038035 51.68012589 17.72363281 76.34667969 C18.8485901 81.32653811 19.96830685 86.30755557 21.0859375 91.2890625 C21.39381892 92.65927484 21.70175951 94.02947389 22.00976562 95.3996582 C22.57468206 97.91356821 23.13853224 100.42771812 23.70117188 102.94213867 C24.9292477 108.39911634 26.19524693 113.83976121 27.5703125 119.26171875 C27.81281738 120.22883789 28.05532227 121.19595703 28.30517578 122.19238281 C28.74648364 123.93590548 29.19927793 125.67659226 29.66748047 127.41308594 C30.9956986 132.66138456 30.97136857 136.6635439 30 142 C29.34 142 28.68 142 28 142 C27.82984375 141.26402588 27.6596875 140.52805176 27.484375 139.76977539 C26.65800268 136.20027554 25.82961305 132.63124775 25 129.0625 C24.8448291 128.39474548 24.6896582 127.72699097 24.52978516 127.03900146 C22.724374 119.27835604 20.89645019 111.52410566 19 103.78515625 C18.8353978 103.11340363 18.67079559 102.441651 18.50120544 101.74954224 C18.16813881 100.39084202 17.83504452 99.03214858 17.50192261 97.67346191 C14.34193565 84.7768264 11.38637532 71.85015269 8.58740234 58.87060547 C6.52278976 49.30889257 4.35715292 39.77397847 2.125 30.25 C1.6772522 28.33924683 1.6772522 28.33924683 1.22045898 26.38989258 C-0.13471967 20.57160411 -0.13471967 20.57160411 -1.57592773 14.77441406 C-2.0840857 12.64816646 -2.16879506 10.68473699 -2.1875 8.5 C-2.20167969 7.7471875 -2.21585938 6.994375 -2.23046875 6.21875 C-1.97417278 3.75135827 -1.22845153 2.13643744 0 0 Z " fill="#686463" transform="translate(689,623)"/>
<path d="M0 0 C2.625 1.5625 2.625 1.5625 4 4 C4 7.77740499 3.43849182 10.2189744 1.58984375 13.51171875 C-2.22492882 17.1768924 -6.40178228 18.04999179 -11.4375 19.375 C-12.37916016 19.64699219 -13.32082031 19.91898437 -14.29101562 20.19921875 C-22.27311048 22.39612559 -22.27311048 22.39612559 -27 21 C-28.80078125 19.15234375 -28.80078125 19.15234375 -30.3125 16.9375 C-30.82425781 16.20402344 -31.33601563 15.47054688 -31.86328125 14.71484375 C-32.23839844 14.14894531 -32.61351562 13.58304687 -33 13 C-10.61794377 -2.09337509 -10.61794377 -2.09337509 0 0 Z " fill="#915C1F" transform="translate(450,295)"/>
<path d="M0 0 C6.01129339 2.91977108 8.92717577 7.12984686 11.203125 13.21875 C13.74245907 21.44476177 15.89012366 29.61010025 12.75 37.9375 C11.06231213 40.89095377 9.95580215 42.37907624 7 44 C6.34 44 5.68 44 5 44 C4.75765625 43.030625 4.5153125 42.06125 4.265625 41.0625 C4.02537598 40.10234985 4.02537598 40.10234985 3.78027344 39.12280273 C3.42308398 37.69289373 3.06698577 36.26271174 2.71191406 34.83227539 C1.7809019 31.08818298 0.83344882 27.35013752 -0.15625 23.62109375 C-0.43130371 22.56825195 -0.43130371 22.56825195 -0.71191406 21.49414062 C-1.22447682 19.5350532 -1.74484796 17.57801363 -2.265625 15.62109375 C-3.27244402 10.65661913 -3.84066154 6.64629551 -1.5 2.0625 C-1.005 1.381875 -0.51 0.70125 0 0 Z " fill="#F9E0BE" transform="translate(761,628)"/>
<path d="M0 0 C5.17246701 0.52780276 9.46796788 1.38536609 14 4 C17.62834844 9.61808791 17.71259835 15.44957666 17 22 C16.22060204 25.10415393 15.22571554 28.04515004 14 31 C13.01 31 12.02 31 11 31 C10.84144531 30.24976563 10.68289063 29.49953125 10.51953125 28.7265625 C8.61337727 20.36475996 6.14811899 12.81088088 0.625 6.125 C-1 4 -1 4 -0.75 1.6875 C-0.5025 1.130625 -0.255 0.57375 0 0 Z " fill="#F5DCBB" transform="translate(772,620)"/>
<path d="M0 0 C2 2 2 2 2.4375 4.875 C2 8 2 8 0.0625 10.3125 C-3.93690453 12.51625352 -7.44432054 13.20398565 -12 13 C-14.5625 11.9375 -14.5625 11.9375 -16 10 C-16.5625 7.0625 -16.5625 7.0625 -16 4 C-10.74585389 -1.25414611 -6.89603798 -1.20407012 0 0 Z " fill="#6A6766" transform="translate(744,760)"/>
<path d="M0 0 C2.10762603 2.10762603 2.84505738 3.65908025 4 6.375 C5.25192661 9.29942231 6.55131355 12.1673006 8 15 C-2.7639485 15.61802575 -2.7639485 15.61802575 -7.25 13.375 C-9.44853908 10.39126838 -9.41195187 8.6251765 -9 5 C-6.03 3.35 -3.06 1.7 0 0 Z " fill="#DE3612" transform="translate(297,375)"/>
<path d="M0 0 C9.2814222 0.29940072 15.88653078 3.84541132 22.625 10.1875 C25 13 25 13 25 16 C21.58788917 15.361203 19.26514169 14.0172426 16.375 12.125 C12.03544384 9.43370256 7.97450945 7.86079664 3.03125 6.640625 C1 6 1 6 -1 4 C-0.625 1.875 -0.625 1.875 0 0 Z " fill="#242320" transform="translate(647,214)"/>
<path d="M0 0 C6.45027515 0.26327654 9.47915791 2.50664023 14 7 C13.67 8.65 13.34 10.3 13 12 C9.09427217 11.42137365 6.98939189 9.47900791 4 7 C2.3497306 5.9731657 0.68756133 4.96432076 -1 4 C-0.67 2.68 -0.34 1.36 0 0 Z " fill="#242320" transform="translate(652,230)"/>
<path d="M0 0 C0.66 0.33 1.32 0.66 2 1 C0.42173185 2.46381359 -1.16282229 3.92085163 -2.75 5.375 C-3.63171875 6.18710937 -4.5134375 6.99921875 -5.421875 7.8359375 C-7.59802521 9.6625848 -9.40820119 10.89787994 -12 12 C-10.56394807 8.61181498 -8.79533421 6.6813402 -6 4.3125 C-5.29875 3.71050781 -4.5975 3.10851563 -3.875 2.48828125 C-2 1 -2 1 0 0 Z " fill="#86571F" transform="translate(567,50)"/>
</svg>
